<?xml version="1.0" encoding="utf-8"?>
<!-- Generator: Adobe Illustrator 24.0.2, SVG Export Plug-In . SVG Version: 6.00 Build 0)  -->
<svg version="1.1" id="Capa_1" xmlns="http://www.w3.org/2000/svg" xmlns:xlink="http://www.w3.org/1999/xlink" x="0px" y="0px"
	 viewBox="0 0 56 56" style="enable-background:new 0 0 56 56;" xml:space="preserve">
<style type="text/css">
	.st0{fill:#32FFD2;}
	.st1{fill:#3F19F9;}
</style>
<g>
	<g>
		<ellipse class="st0" cx="28" cy="19.37" rx="6.85" ry="7.45"/>
	</g>
	<g>
		<path class="st1" d="M28,27.48c-4.14,0-7.51-3.64-7.51-8.11s3.37-8.11,7.51-8.11s7.51,3.64,7.51,8.11S32.14,27.48,28,27.48z
			 M28,12.58c-3.41,0-6.18,3.04-6.18,6.79s2.77,6.79,6.18,6.79s6.18-3.04,6.18-6.79S31.41,12.58,28,12.58z"/>
	</g>
	<g>
		<path class="st1" d="M34.5,44.74h-13c-1.8,0-3.49-0.8-4.63-2.19c-1.14-1.39-1.6-3.2-1.25-4.96l0.86-4.38
			c0.55-2.81,3.03-4.84,5.88-4.84h1.2c0.09,0,0.19,0.02,0.27,0.06c1.33,0.59,2.73,0.9,4.17,0.9s2.84-0.3,4.17-0.9
			c0.09-0.04,0.18-0.06,0.27-0.06h1.2c2.86,0,5.33,2.04,5.88,4.84l0.86,4.38c0.35,1.77-0.11,3.58-1.25,4.96
			C37.99,43.95,36.3,44.74,34.5,44.74z M22.36,29.7c-2.23,0-4.15,1.59-4.58,3.77l-0.86,4.38c-0.27,1.37,0.09,2.78,0.98,3.87
			c0.89,1.08,2.2,1.7,3.61,1.7h13c1.4,0,2.71-0.62,3.61-1.7c0.89-1.08,1.25-2.49,0.98-3.87l0,0l-0.86-4.38
			c-0.43-2.18-2.36-3.77-4.58-3.77h-1.06c-1.46,0.63-3,0.95-4.58,0.95s-3.12-0.32-4.58-0.95H22.36z"/>
	</g>
</g>
</svg>
